<?xml version="1.0" encoding="utf-8"?>
<!-- Generator: Adobe Illustrator 22.0.1, SVG Export Plug-In . SVG Version: 6.00 Build 0)  -->
<svg version="1.1" id="Capa_1" xmlns="http://www.w3.org/2000/svg" xmlns:xlink="http://www.w3.org/1999/xlink" x="0px" y="0px"
	 viewBox="0 0 60 60" style="enable-background:new 0 0 60 60;" xml:space="preserve">
<style type="text/css">
	.st0{fill:#7E7E7E;}
</style>
<g>
	<path class="st0" d="M51,54c0,1.4-7.4,4-21,4S9,55.4,9,54v-3.2c0-2.6,1.4-4.9,3.7-6.2l8.9-4.9c1.5-0.8,2.4-2.4,2.4-4.1v-4l-0.2-0.3
		c0,0-2.5-3-3.4-7.1l-0.1-0.4l-0.3-0.2c-0.6-0.4-0.9-1-0.9-1.7v-4c0-0.6,0.2-1.1,0.7-1.5l0.3-0.3V10l0-0.1c0,0-0.3-2.8,1.6-5
		C23.3,3,26.1,2,30,2c3.9,0,6.7,1,8.4,2.8c1.9,2.2,1.6,5,1.6,5l0,6.4l0.3,0.3c0.4,0.4,0.7,0.9,0.7,1.5v4c0,0.9-0.6,1.6-1.4,1.9
		l-0.5,0.2l-0.2,0.5c-0.7,2.1-1.6,4-2.8,5.7c-0.3,0.4-0.6,0.8-0.8,1.1L35,31.6v4.1c0,1.8,1,3.4,2.6,4.2l9.6,4.8
		c2.4,1.2,3.9,3.6,3.9,6.3V54z"/>
</g>
</svg>
